<svg width="69" height="21" viewBox="0 0 69 21" fill="none" xmlns="http://www.w3.org/2000/svg">
<path d="M57.221 7.39966L60.0461 10.5244L62.7659 7.39966H68.5737L62.8978 13.8052L68.6515 20.2632H62.6094L59.8109 17.1137L57.0379 20.2632H51.2036L56.907 13.8319L51.2036 7.39966H57.221Z" fill="#FF5900"/>
<path d="M51.2037 7.39956V11.7458H44.7442V15.7341H51.2037V20.2631H39.9971V0H51.2037V4.51666H44.7442V7.39956H51.2037Z" fill="#FF5900"/>
<path d="M35.27 0V8.29261H35.2178C34.1705 7.08537 32.8632 6.6655 31.3463 6.6655C28.2385 6.6655 25.8971 8.78674 25.0756 11.5897C24.1374 8.50111 21.7202 6.60743 18.1361 6.60743C15.2256 6.60743 12.927 7.91844 11.7279 10.0549V7.39956H5.71144V4.51666H12.2772V0H0.348633V20.2631H5.71144V11.7458H11.0572C10.8978 12.3713 10.8124 13.0416 10.8124 13.749C10.8124 17.9752 14.0303 20.9419 18.1361 20.9419C21.5893 20.9419 23.8651 19.3148 25.068 16.3491H20.4717C19.8504 17.2412 19.3789 17.5049 18.1361 17.5049C16.6951 17.5049 15.4523 16.2434 15.4523 14.7477H24.8109C25.217 18.1047 27.8229 21 31.3985 21C32.941 21 34.3535 20.2383 35.2168 18.953H35.269V20.265H39.9962V0H35.27ZM15.6022 11.8058C15.9001 10.5186 16.8953 9.67788 18.1371 9.67788C19.5041 9.67788 20.448 10.4929 20.6966 11.8058C20.8009 11.8058 15.6022 11.8058 15.6022 11.8058ZM32.4002 17.1784C30.6575 17.1784 29.5742 15.5484 29.5742 13.847C29.5742 12.0286 30.5162 10.2796 32.4002 10.2796C34.3535 10.2796 35.1315 12.0286 35.1315 13.847C35.1315 15.5712 34.3071 17.1784 32.4002 17.1784Z" fill="#2A007C"/>
</svg>
